<svg version="1" xmlns="http://www.w3.org/2000/svg" width="682.667" height="682.667" viewBox="0 0 512.000000 512.000000"><path d="M25.5.9C13.4 4 4.2 13 1.1 25 .2 28.4 0 86.3.2 258.5l.3 229 2.8 5.6c3.2 6.6 9.8 13.1 16.5 16.2l4.7 2.2h463l4.7-2.2c6.7-3.1 13.1-9.4 16.4-16.1l2.9-5.7v-463l-2.2-4.7c-3.1-6.7-9.6-13.3-16.2-16.5L487.5.5 258 .3C131.8.3 27.2.5 25.5.9zm454.1 63.3c.1 31.8.1 31.8-2 31.9H34.9l-2.6-.1V64.1l-.1-31.8 223.7.1 223.6.1.1 31.7zm0 239.7l-.1 175.6-223.6.1-223.6.1V128.2h447.4l-.1 175.7z"/><path d="M58.3 49.5c-4.4 1.9-6.9 4.4-8.7 8.6-2.3 5.5-.9 13.3 3.2 17.2 9.7 9.3 25.1 4 26.9-9.1 1.1-8-3.5-15-11.2-17.1-5.1-1.4-6.3-1.3-10.2.4zM96.8 50.4c-8.6 4.4-11.1 15.6-5.2 23.3 9.5 12.4 29.7 4.8 28.2-10.7-1.1-11.6-12.7-18-23-12.6zM137.4 49.9c-5.8 2.6-9.3 8.7-8.9 15.3.5 8.9 6.4 14.3 15.5 14.3 6.6 0 9.9-1.8 13.8-7.5 5.2-7.8.7-19.8-8.7-22.9-4.7-1.5-6.9-1.4-11.7.8zM279.9 189.7c-1.9 4.8-16.6 44.6-18.7 50.3-4.3 11.9-9.4 25.6-10.2 27.5-.5 1.1-2.7 7.2-5 13.5-7.7 21.1-18.2 49.5-19.1 51.5-.4 1.1-4.9 13.2-9.9 27-5 13.7-9.6 25.9-10 27-.5 1.1-2.1 5.1-3.4 8.8l-2.6 6.8 3.3 1.3c1.7.7 4.1 1.7 5.2 2.1 1.1.4 2.5.9 3 1.1.6.1 4.6 1.6 9 3.3 8.7 3.4 10.5 3.7 10.5 1.9 0-1.2 4.1-13 6.1-17.3.4-1.1 1.5-3.8 2.2-6 .8-2.2 4-11 7.2-19.5s8.6-23.2 12-32.5c13.6-37 26.6-72.1 27.4-74 .5-1.1 1.4-3.4 1.9-5 1-2.9 18.9-51.2 21.1-56.7.9-2.5.8-2.9-2.2-4.2-4.3-1.9-25-9.6-26-9.6-.4 0-1.2 1.2-1.8 2.7zM123.1 262.5l-41.4 41.4 41.6 41.6 41.5 41.5 11.3-11.1 11.2-11.1-30.4-30.4-30.4-30.4 30.4-30.4 30.4-30.4-11.2-11.1C170 226 164.9 221 164.8 221c-.2 0-18.9 18.7-41.7 41.5zM335.6 232.3l-10.8 10.9 30.3 30.4 30.4 30.4-30.4 30.4-30.3 30.3 11.2 11.2 11.1 11.2 41.6-41.6 41.6-41.6-40.4-40.5c-22.2-22.3-41.1-40.8-41.9-41.3-1.1-.6-4.3 2-12.4 10.2z"/></svg>